#!OML:ASF F:\VICON\USERDATA\INSTALL\rory3\rory3.ASF
:FULLY-SPECIFIED
:DEGREES
1
root -0.9195227348724622 17.206708685438766 -32.30618292670499 6.010079084253485 -2.1114719889975273 -6.5170963276109575
lfemur -25.86779496933263 7.189132302262824 -10.752515576180777
ltibia 104.04897948381969
lfoot 7.526894592671983 -13.787388699870693
ltoes 0.37512367422572446
rfemur -22.14659904471699 3.9586833540398576 34.87149016508046
rtibia 48.9178049719055
rfoot -22.272580724058255 -18.48458162346238
rtoes -5.583334152254236
lowerback 17.335690060672345 0.36203095854975703 3.175495503263134
upperback 0.4906948881653983 1.4043404963879325 3.1135903843013084
thorax -9.227407612142585 0.6066189796725943 1.2207288150447297
lowerneck -21.859891988313308 -3.1588433318637437 -1.3040920868267551
upperneck 12.2822092322377 -4.181433155017748 1.7646185944364143
head 7.388488109783681 -1.8849426527416102 0.2728406072536273
lclavicle 7.933867224817343e-17 -3.5106937487820206e-16
lhumerus -52.44049890306301 -11.167904754901969 98.16349816307718
lradius 97.59631143886138
lwrist 29.294713580246977
lhand -25.80769516483991 2.837796689819672
lfingers 7.12502
lthumb 0.7315158351336307 32.81629664398027
rclavicle 7.933867224817343e-17 -3.5106937487820206e-16
rhumerus -37.915512194595195 10.290996952831843 -93.68590809697957
rradius 101.15801391863923
rwrist -7.893628205569129
rhand -21.343176179760626 39.76360061178188
rfingers 7.12502
rthumb 5.042993825008177 9.843601509796153
2
root -0.9272975321073266 17.26090780701664 -31.822283125441928 5.805140142827301 -1.2205843294957146 -6.500626384378885
lfemur -28.458693780641667 6.779413246565514 -10.861115409796547
ltibia 103.97097951482729
lfoot 7.38191469298293 -13.072789887214638
ltoes 4.874364055392366
rfemur -19.793900057420505 3.3142547388380255 34.94859003211016
rtibia 48.0612052671259
rfoot -22.000680913380375 -18.70958128781015
rtoes -7.7711827279947405
lowerback 17.51098909263616 0.30478130941062487 3.1680755220956773
upperback 0.1500025419320119 1.3754706030324382 3.316048865992697
thorax -9.708760998797475 0.5937210968669386 1.4562880606231225
lowerneck -20.48940040895248 -3.348811931097682 -1.9078019684596303
upperneck 12.189809801419631 -4.2980225694966725 1.8544177709524101
head 7.151223810311992 -1.973261678666336 0.40354244201301287
lclavicle 7.933865114941484e-17 -3.5106939090950004e-16
lhumerus -54.395897592071066 -10.981005054825378 98.91739561428655
lradius 98.54761041738521
lwrist 29.83391187013569
lhand -26.222092732518668 3.0559058940231187
lfingers 7.12502
lthumb 0.33123526789323443 33.0353958428395
rclavicle 7.933865114941484e-17 -3.5106939090950004e-16
rhumerus -38.40641172824105 10.786396093234359 -93.7985078089804
rradius 103.16801049283441
rwrist -9.75467142865356
rhand -22.110072326098074 39.29200308678628
rfingers 7.12502
rthumb 4.302467681263017 9.355714091123424
3
root -0.931786415038171 17.32440677786895 -31.331783326889443 5.571961347268815 -0.48884225189410424 -6.663795821973093
lfemur -30.741692733213505 6.464103973276628 -10.839515442889542
ltibia 103.34597976328416
lfoot 6.358655400971544 -12.34619109449719
ltoes 3.6952352658632126
rfemur -17.293101133872636 2.8147758121570643 35.17218964647904
rtibia 47.04810561628277
rfoot -21.21788145843847 -18.620681420430063
rtoes -9.8118913995213
lowerback 17.857887176995796 0.40995966481332885 3.334385099987845
upperback -0.10617371069708958 1.6016997673488047 3.491697548740367
thorax -10.19279434863218 0.6932301926950355 1.4985179253742484
lowerneck -20.121202671250433 -3.606790028851911 -2.104218676453948
upperneck 12.451708188121502 -4.573051188281638 1.6711894512082441
head 7.181713077774765 -2.133499911390272 0.3448628630717666
lclavicle 7.93386546869244e-17 -3.5106936901309213e-16
lhumerus -55.90339658137228 -11.191304717351377 99.59539332209917
lradius 99.38170952175474
lwrist 30.60500942453703
lhand -26.364791894940865 3.0741758273631614
lfingers 7.12502
lthumb 0.19339410564165638 33.05379577555976
rclavicle 7.93386546869244e-17 -3.5106936901309213e-16
rhumerus -38.57431156873639 10.736496179818758 -93.76500789466398
rradius 104.98300739938378
rwrist -11.383395497719032
rhand -22.007572841159234 40.16019853038506
rfingers 7.12502
rthumb 4.40147716567582 10.225899487124204
4
root -0.9356513142423832 17.404905473201403 -30.838683529404726 5.404602211731172 0.06839578415632341 -6.809465319885385
lfemur -32.90549174047372 6.2295745138099266 -10.965515249847027
ltibia 102.32898016757295
lfoot 5.175536219566533 -11.613692311582884
ltoes -0.766474153832009
rfemur -14.822902197153212 2.5217964417338488 35.31818939468056
rtibia 46.049205960545706
rfoot -20.325482079810445 -18.022282313115774
rtoes -11.478390314653268
lowerback 18.19888529393622 0.6284103260140561 3.6964041811526807
upperback -0.5074584071057677 2.000378294642485 3.382708366089255
thorax -10.821485711001152 0.8502487659733775 1.0701492973032005
lowerneck -19.40730705760162 -3.8572981816870606 -1.8248133593747695
upperneck 12.590607332500616 -4.962309233397571 1.4157617935525604
head 7.102304985639024 -2.33522768652382 0.18122682588860034
lclavicle 7.93386733852437e-17 -3.510694002937507e-16
lhumerus -57.68649538589833 -11.765303796238287 99.98779199547037
lradius 100.17200867315533
lwrist 31.22520745752847
lhand -25.872494784496237 2.9792061738708817
lfingers 7.12502
lthumb 0.6689032156703443 32.95789612621883
rclavicle 7.93386733852437e-17 -3.510694002937507e-16
rhumerus -39.23951093679763 10.138897216749443 -93.97100736777384
rradius 106.985003987214
rwrist -12.046893081618721
rhand -20.69967941333978 39.95109962776296
rfingers 7.12502
rthumb 5.664280589686767 10.046800434706066
5
root -0.9290634860516049 17.499703936773038 -30.321583741776728 5.2860628240242375 0.25938478239900586 -7.012274620850519
lfemur -34.540190990482174 6.248954469143852 -11.12331500808425
ltibia 100.76998078732376
lfoot 4.135516939151337 -10.758093733205447
ltoes -2.9559579061502586
rfemur -12.361503256645879 2.6397561882527976 35.46558914046755
rtibia 44.98460632745165
rfoot -19.016882990979507 -17.169183585759754
rtoes -13.724588852408761
lowerback 18.06878601237039 0.9455073826493342 4.187212935438389
upperback -0.8950752500958001 2.524546358381643 3.228789520381764
thorax -11.152681160685589 1.0564068927538057 0.4850841710813716
lowerneck -18.114315002064554 -4.07428658168586 -1.7175651568883092
upperneck 12.450908193049484 -5.301237531273394 1.3894320350039362
head 6.843841195507751 -2.5061358015690525 0.14237076687597205
lclavicle 7.933864066318493e-17 -3.5106938308935997e-16
lhumerus -59.62219408811419 -12.21080308133258 100.32999083855812
lradius 100.84100795480406
lwrist 31.64370613022586
lhand -25.210498670105945 2.5463777530952254
lfingers 7.12502
lthumb 1.308231330066749 32.522097719724755
rclavicle 7.933864066318493e-17 -3.5106938308935997e-16
rhumerus -40.07091014696913 9.603308146082949 -94.24490666721454
rradius 109.10200037904046
rwrist -12.47609151870952
rhand -20.173582056985452 39.830500260683934
rfingers 7.12502
rthumb 6.172257944418732 9.940420997541121
6
root -0.9091690048956398 17.600302306343785 -29.773083967044798 5.386552304964592 -0.17409807877519623 -7.101824312194269
lfemur -35.657990477641455 6.753433306442941 -11.578914310067063
ltibia 98.70708160739046
lfoot 1.4766887787829075 -9.41284596840619
ltoes -9.189291507130292
rfemur -10.023404263064927 3.194514996144071 35.33068937312246
rtibia 43.85020671841368
rfoot -17.203884253358826 -16.05398524940123
rtoes -16.043087343097895
lowerback 17.061091577059905 1.4112465283149702 4.441672289598934
upperback -0.6648557190929614 3.1053442129320787 3.1709199543663456
thorax -10.28879302970013 1.3344743661426002 0.14763625182010753
lowerneck -18.827010623086416 -4.282055049669411 -1.9782207882181062
upperneck 12.906005389643687 -5.524866408191844 1.4738812605805072
head 7.12423445876 -2.609244664375873 0.16584219846215847
lclavicle 7.93386819763565e-17 -3.510693228742284e-16
lhumerus -60.25259366546445 -12.121503224634669 100.40999056809352
lradius 101.28600747697699
lwrist 31.85890544770371
lhand -25.96609423511094 0.8630488949144415
lfingers 7.12502
lthumb 0.5785337649029756 30.842003863022867
rclavicle 7.93386819763565e-17 -3.510693228742284e-16
rhumerus -39.38121080218285 9.861037698880562 -94.12840696518883
rradius 110.503997989499
rwrist -12.825490246387817
rhand -20.66787957313435 40.90969459693341
rfingers 7.12502
rthumb 5.695060429402208 11.006295358185707
